<svg id="Partition-Specific--Streamline-Carbon" xmlns="http://www.w3.org/2000/svg" viewBox="0 0 16 16" height="16" width="16">
  <desc>
    Partition Specific Streamline Icon: https://streamlinehq.com
  </desc>
  <defs></defs>
  <path d="M13 9c-0.9292 0 -1.7053 0.6399 -1.92895 1.5h-1.364L7 7.79295C6.81115 7.604 6.56005 7.5 6.29285 7.5H1v1h5.29295L9 11.20705c0.18885 0.18895 0.43995 0.29295 0.70715 0.29295h1.3639c0.22365 0.8601 0.99975 1.5 1.92895 1.5 1.1028 0 2 -0.8972 2 -2s-0.8972 -2 -2 -2Zm0 3c-0.5514 0 -1 -0.44875 -1 -1s0.4486 -1 1 -1 1 0.44875 1 1 -0.4486 1 -1 1Z" fill="#000000" stroke-width="0.5"></path>
  <path d="M13 3c-0.9292 0 -1.7053 0.6399 -1.92895 1.5h-1.3639c-0.2672 0 -0.5183 0.104 -0.70715 0.29295l-1.7932 1.7932 0.70705 0.70705L9.7072 5.5h1.3639c0.22365 0.8601 0.99975 1.5 1.92895 1.5 1.1028 0 2 -0.8972 2 -2s-0.8972 -2 -2 -2Zm0 3c-0.5514 0 -1 -0.44875 -1 -1s0.4486 -1 1 -1 1 0.44875 1 1 -0.4486 1 -1 1Z" fill="#000000" stroke-width="0.5"></path>
  <path id="_Transparent_Rectangle_" d="M0 0h16v16H0Z" fill="none" stroke-width="0.5"></path>
</svg>