<svg class="w-6 h-6" height="150" width="150" xmlns="http://www.w3.org/2000/svg" viewBox="0 0 150 150"><path d="M93.612 93.219a2.759 2.759 0 0 1 -2.753 2.756 2.759 2.759 0 0 1 -2.756 -2.756 2.756 2.756 0 0 1 5.506 -0.003zm9.006 -56.047a2.759 2.759 0 1 1 0.003 -5.516 2.759 2.759 0 0 1 -0.003 5.516m-10.688 27.487a2.759 2.759 0 0 1 -5.509 0c0 -1.519 1.238 -2.756 2.756 -2.756s2.756 1.238 2.756 2.756zm14.65 48.719a2.759 2.759 0 0 1 5.513 0 2.759 2.759 0 0 1 -5.513 0m13.825 -15.556a3.125 3.125 0 0 0 -1.594 2.719v19.35l-22.313 13.194V117.344h4.794a9 9 0 0 0 8.044 5.038 9.016 9.016 0 0 0 9.006 -9.003 9.016 9.016 0 0 0 -9.006 -9.006 9 9 0 0 0 -8.675 6.719H93.375a3.125 3.125 0 0 0 -3.125 3.125v22.559l-1.266 0.75 -10.963 -6.353v-81.031h8.869v5.841a9 9 0 0 0 -6.722 8.675 9.016 9.016 0 0 0 9.006 9 9.016 9.016 0 0 0 9.006 -9 9 9 0 0 0 -5.041 -8.044v-6.472h10.313a3.125 3.125 0 0 0 3.125 -3.125v-4.556a9 9 0 0 0 5.044 -8.044 9.016 9.016 0 0 0 -9.006 -9.006 9.016 9.016 0 0 0 -9.006 9.006c0 4.172 2.866 7.656 6.719 8.675v0.8h-22.306V21.262l13.744 -8.231 28.725 17.512v19.262a3.125 3.125 0 0 0 1.584 2.719l15.216 8.625v9.622H108.5a3.125 3.125 0 0 0 -3.125 3.125v15.356h-6.472a8.969 8.969 0 0 0 -8.044 -5.038 9.016 9.016 0 0 0 -9.006 9 9.016 9.016 0 0 0 9.006 9.009 9 9 0 0 0 8.675 -6.722h8.966a3.125 3.125 0 0 0 3.125 -3.125v-15.356h25.672v11.291zM53.897 88.781c1.519 0 2.756 1.238 2.756 2.756a2.759 2.759 0 0 1 -2.756 2.756 2.759 2.759 0 0 1 -2.756 -2.756c0 -1.519 1.238 -2.756 2.756 -2.756m-4.438 -49.325a2.759 2.759 0 1 1 2.756 2.756 2.759 2.759 0 0 1 -2.753 -2.756zm-11.287 25.2a2.759 2.759 0 0 1 -5.509 0c0 -1.519 1.238 -2.756 2.75 -2.756 1.522 0 2.759 1.238 2.759 2.756m16.328 53.759a2.759 2.759 0 1 1 5.516 0.009 2.759 2.759 0 0 1 -5.516 -0.009m4.6 19.091 -29.8 -17.625v-19.344a3.125 3.125 0 0 0 -1.616 -2.737L26.563 97.188h8.247v22.072a3.125 3.125 0 0 0 3.125 3.125h11.275a9 9 0 0 0 8.044 5.041 9.016 9.016 0 0 0 9.006 -9.006 9.016 9.016 0 0 0 -9.006 -9.003 9 9 0 0 0 -8.675 6.719H41.063V94.063a3.125 3.125 0 0 0 -3.125 -3.125H15.2L12.5 89.453v-28.303l15.216 -8.628a3.125 3.125 0 0 0 1.584 -2.722v-8.063h3.831v14.247a9 9 0 0 0 -6.719 8.675 9.012 9.012 0 0 0 9 9 9.016 9.016 0 0 0 9.009 -9 9 9 0 0 0 -5.041 -8.044v-14.875h4.163a9 9 0 0 0 8.675 6.725 9.016 9.016 0 0 0 9 -9.006 9.016 9.016 0 0 0 -9 -9.006 9 9 0 0 0 -8.044 5.038h-14.875V30.538l28.725 -17.509 13.75 8.231v36.075h-18.719a3.125 3.125 0 0 0 -3.125 3.125v23.038a8.969 8.969 0 0 0 -5.041 8.044 9.016 9.016 0 0 0 9.006 9.006 9.016 9.016 0 0 0 9.006 -9.006c0 -4.172 -2.866 -7.656 -6.722 -8.675v-19.281h15.594V129.969zm84.444 -78.175c0 -1.125 -0.606 -2.162 -1.584 -2.719l-15.213 -8.628 -0.003 -19.197a3.125 3.125 0 0 0 -1.5 -2.669l-31.831 -19.406a3.125 3.125 0 0 0 -3.234 -0.016L74.903 15.844l-15.288 -9.147a3.125 3.125 0 0 0 -3.231 0.013L24.55 26.116a3.125 3.125 0 0 0 -1.5 2.669v19.197l-15.219 8.631a3.125 3.125 0 0 0 -1.581 2.719v31.969a3.125 3.125 0 0 0 1.619 2.737l15.184 8.35 -0.003 19.281a3.125 3.125 0 0 0 1.531 2.688l32.934 19.475a3.125 3.125 0 0 0 3.188 -0.003l13.172 -7.834 13.559 7.856a3.125 3.125 0 0 0 3.156 -0.016l32.938 -19.472a3.125 3.125 0 0 0 1.531 -2.691v-19.3l16.894 -9.509a3.125 3.125 0 0 0 1.594 -2.722l-0.003 -30.806z" fill="#067F68" fill-rule="evenodd"/></svg>