<svg class="w-[140px] h-[140px]" height="200" width="200" xmlns="http://www.w3.org/2000/svg" viewBox="0 0 200 200"><path d="M119.823 119.32a3.533 3.533 0 0 1 -3.523 3.528 3.533 3.533 0 0 1 -3.528 -3.528 3.528 3.528 0 0 1 7.048 -0.003zm11.528 -71.74a3.532 3.532 0 1 1 0.003 -7.06 3.532 3.532 0 0 1 -0.003 7.06m-13.68 35.183a3.532 3.532 0 0 1 -7.052 0c0 -1.943 1.583 -3.528 3.528 -3.528s3.528 1.583 3.528 3.528zm18.752 62.36a3.532 3.532 0 0 1 7.057 0 3.532 3.532 0 0 1 -7.057 0m17.697 -19.912a4 4 0 0 0 -2.04 3.48v24.768l-28.56 16.888V150.2h6.137a11.517 11.517 0 0 0 10.297 6.448 11.54 11.54 0 0 0 11.528 -11.523 11.54 11.54 0 0 0 -11.528 -11.528 11.517 11.517 0 0 0 -11.103 8.6h-9.33a4 4 0 0 0 -4 4v28.877l-1.62 0.96 -14.032 -8.132V64.182h11.352v7.477a11.517 11.517 0 0 0 -8.603 11.103 11.54 11.54 0 0 0 11.528 11.52 11.54 11.54 0 0 0 11.528 -11.52 11.517 11.517 0 0 0 -6.452 -10.297v-8.283h13.2a4 4 0 0 0 4 -4V54.35a11.517 11.517 0 0 0 6.457 -10.297 11.54 11.54 0 0 0 -11.528 -11.528 11.54 11.54 0 0 0 -11.528 11.528c0 5.34 3.668 9.8 8.6 11.103v1.023H99.87V27.217l17.592 -10.537 36.768 22.417v24.657a4 4 0 0 0 2.028 3.48l19.477 11.04v12.317H138.88a4 4 0 0 0 -4 4v19.657h-8.283a11.483 11.483 0 0 0 -10.297 -6.448 11.54 11.54 0 0 0 -11.528 11.52 11.54 11.54 0 0 0 11.528 11.532 11.517 11.517 0 0 0 11.103 -8.603h11.477a4 4 0 0 0 4 -4V98.59h32.86v14.452zm-85.132 -11.572a3.533 3.533 0 0 1 3.528 3.528 3.533 3.533 0 0 1 -3.528 3.528 3.533 3.533 0 0 1 -3.528 -3.528 3.533 3.533 0 0 1 3.528 -3.528m-5.68 -63.137a3.532 3.532 0 1 1 3.528 3.528 3.533 3.533 0 0 1 -3.523 -3.528zm-14.448 32.257a3.532 3.532 0 0 1 -7.052 0 3.533 3.533 0 0 1 3.52 -3.528 3.533 3.533 0 0 1 3.532 3.528m20.9 68.812a3.532 3.532 0 1 1 7.06 0.012 3.532 3.532 0 0 1 -7.06 -0.012m5.888 24.437L37.505 153.448V128.688a4 4 0 0 0 -2.068 -3.503l-1.437 -0.785h10.557v28.252a4 4 0 0 0 4 4h14.432a11.517 11.517 0 0 0 10.297 6.452 11.54 11.54 0 0 0 11.528 -11.528 11.54 11.54 0 0 0 -11.528 -11.523 11.517 11.517 0 0 0 -11.103 8.6h-9.622V120.4a4 4 0 0 0 -4 -4H19.457L16 114.5V78.272l19.477 -11.043a4 4 0 0 0 2.028 -3.483v-10.32h4.903v18.237a11.517 11.517 0 0 0 -8.6 11.103 11.533 11.533 0 0 0 11.52 11.52 11.54 11.54 0 0 0 11.532 -11.52 11.517 11.517 0 0 0 -6.452 -10.297V53.428h5.328a11.517 11.517 0 0 0 11.103 8.608 11.54 11.54 0 0 0 11.52 -11.528 11.54 11.54 0 0 0 -11.52 -11.528 11.517 11.517 0 0 0 -10.297 6.448H37.503v-6.34l36.768 -22.412 17.6 10.537v46.177H67.912a4 4 0 0 0 -4 4v29.488a11.483 11.483 0 0 0 -6.452 10.297 11.54 11.54 0 0 0 11.528 11.528 11.54 11.54 0 0 0 11.528 -11.528c0 -5.34 -3.668 -9.8 -8.603 -11.103V81.392h19.96v84.968zm108.088 -100.063c0 -1.44 -0.777 -2.768 -2.028 -3.48l-19.472 -11.043 -0.003 -24.572a4 4 0 0 0 -1.92 -3.417L119.57 8.593a4 4 0 0 0 -4.14 -0.02l-19.553 11.707 -19.568 -11.708a4 4 0 0 0 -4.137 0.017L31.423 33.428a4 4 0 0 0 -1.92 3.417V61.417L10.023 72.465A4 4 0 0 0 8 75.945v40.92a4 4 0 0 0 2.072 3.503l19.437 10.688 -0.003 24.68a4 4 0 0 0 1.96 3.44l42.157 24.928a4 4 0 0 0 4.08 -0.003l16.86 -10.028 17.357 10.057a4 4 0 0 0 4.04 -0.02l42.16 -24.923a4 4 0 0 0 1.96 -3.443V131.04l21.623 -12.172a4 4 0 0 0 2.04 -3.483l-0.003 -39.432z" fill="#A166FF" fill-rule="evenodd"/></svg>